<?xml version="1.0" encoding="UTF-8" standalone="no"?>
<!DOCTYPE svg PUBLIC "-//W3C//DTD SVG 1.1//EN" "http://www.w3.org/Graphics/SVG/1.1/DTD/svg11.dtd">
<svg version="1.1" xmlns="http://www.w3.org/2000/svg" xmlns:xlink="http://www.w3.org/1999/xlink" preserveAspectRatio="xMidYMid meet" viewBox="0 0 640 640" width="640" height="640"><defs><path d="M640 320C640 496.61 496.61 640 320 640C143.39 640 0 496.61 0 320C0 143.39 143.39 0 320 0C496.61 0 640 143.39 640 320Z" id="bAUiSA3KL"></path><path d="M495.5 282.3C501.75 282.3 506.81 287.36 506.81 293.61C506.81 306.43 506.81 333.57 506.81 346.39C506.81 352.64 501.75 357.7 495.5 357.7C423.03 357.7 216.97 357.7 144.5 357.7C138.25 357.7 133.19 352.64 133.19 346.39C133.19 333.57 133.19 306.43 133.19 293.61C133.19 287.36 138.25 282.3 144.5 282.3C216.97 282.3 423.03 282.3 495.5 282.3Z" id="hvRyaPQI1"></path></defs><g><g><g><use xlink:href="#bAUiSA3KL" opacity="1" fill="#ff1e45" fill-opacity="1"></use></g><g><use xlink:href="#hvRyaPQI1" opacity="1" fill="#ffffff" fill-opacity="1"></use></g></g></g></svg>